<?xml-stylesheet type="text/css" href="../animated-icons.css"?>
<svg class="ta-icon ta-icon--wall is-idle" xmlns="http://www.w3.org/2000/svg" width="48" height="48" viewBox="0 0 48 48" role="img" aria-labelledby="wall-title wall-desc" tabindex="0">
  <title id="wall-title">Wall of love</title>
  <desc id="wall-desc">Two bold stacked love-wall arches.</desc>
  <rect class="frame" x="0.5" y="0.5" width="47" height="47" rx="3.5"/>
  <path class="purple-soft motion-b" d="M12 24C11.4477 24 11 23.5523 11 23C11 19.5522 12.3696 16.2456 14.8076 13.8076C17.2456 11.3696 20.5522 10 24 10C27.4478 10 30.7544 11.3696 33.1924 13.8076C35.6304 16.2456 37 19.5522 37 23C37 23.5523 36.5523 24 36 24H31C30.4477 24 30.0138 23.5481 29.9051 23.0066C29.6559 21.7656 29.0461 20.6191 28.1421 19.7151C27.042 18.615 25.5505 17.997 23.9946 17.997C22.4387 17.997 20.9472 18.615 19.8471 19.7151C18.9431 20.6191 18.3333 21.7656 18.0841 23.0066C17.9754 23.5481 17.5415 24 16.9892 24H12Z"/>
  <path class="purple motion-a" d="M12 39C11.4477 39 11 38.5523 11 38C11 34.5522 12.3696 31.2456 14.8076 28.8076C17.2456 26.3696 20.5522 25 24 25C27.4478 25 30.7544 26.3696 33.1924 28.8076C35.6304 31.2456 37 34.5522 37 38C37 38.5523 36.5523 39 36 39H31C30.4477 39 30.0138 38.5481 29.9051 38.0066C29.6559 36.7656 29.0461 35.6191 28.1421 34.7151C27.042 33.615 25.5505 32.997 23.9946 32.997C22.4387 32.997 20.9472 33.615 19.8471 34.7151C18.9431 35.6191 18.3333 36.7656 18.0841 38.0066C17.9754 38.5481 17.5415 39 16.9892 39H12Z"/>
</svg>
