<svg xmlns="http://www.w3.org/2000/svg" width="16" height="16" viewBox="0 0 16 16" fill="none" style="overflow:visible"><g class="borrow" style="transform-origin:50% 100% 0"><path class="borrow-top" d="M6 1.4641C6.60808 1.81518 7.29785 2 8 2C8.70215 2 9.39192 1.81518 10 1.4641" stroke="var(--fg-4)" stroke-width="2" stroke-linecap="round"></path><path class="borrow-bottom" d="M9.90066 11.5962C9.11754 13.1625 6.88246 13.1625 6.09934 11.5962L3.03587 5.46928C2.26811 3.93377 3.92605 2.31889 5.44083 3.12678C7.04031 3.97983 8.95969 3.97983 10.5592 3.12678C12.074 2.31889 13.7319 3.93377 12.9641 5.46928L9.90066 11.5962Z" fill="var(--fg-3)" stroke="currentColor" stroke-width="1.25"></path></g><g class="borrow-new" style="transform-origin:50% 0% 0"><path class="borrow-top" d="M6 1.4641C6.60808 1.81518 7.29785 2 8 2C8.70215 2 9.39192 1.81518 10 1.4641" stroke="var(--fg-4)" stroke-width="2" stroke-linecap="round"></path><path class="borrow-bottom" d="M9.90066 11.5962C9.11754 13.1625 6.88246 13.1625 6.09934 11.5962L3.03587 5.46928C2.26811 3.93377 3.92605 2.31889 5.44083 3.12678C7.04031 3.97983 8.95969 3.97983 10.5592 3.12678C12.074 2.31889 13.7319 3.93377 12.9641 5.46928L9.90066 11.5962Z" fill="var(--fg-3)" stroke="currentColor"></path></g></svg>