<svg class="styles_socialIcon__QGAbm" xmlns="http://www.w3.org/2000/svg" width="19" height="18" viewBox="0 0 19 18"><g clip-path="url(#clip0_5204_2390)"><g clip-path="url(#clip1_5204_2390)"><path d="M5.296.063C4.338.108 3.684.26 3.113.486c-.592.23-1.093.54-1.592 1.04A4.409 4.409 0 0 0 .486 3.122C.264 3.694.114 4.349.072 5.307.029 6.265.02 6.573.025 9.017c.004 2.444.015 2.75.061 3.71.046.958.198 1.612.423 2.184a4.41 4.41 0 0 0 1.041 1.592c.501.499 1.002.806 1.596 1.035.573.221 1.228.372 2.185.414.958.042 1.267.051 3.71.047 2.443-.005 2.751-.016 3.711-.061.96-.046 1.61-.2 2.182-.423a4.411 4.411 0 0 0 1.592-1.04 4.41 4.41 0 0 0 1.035-1.597c.222-.572.372-1.227.414-2.184.042-.96.052-1.268.047-3.711-.005-2.444-.015-2.75-.061-3.71-.045-.96-.198-1.612-.422-2.184a4.419 4.419 0 0 0-1.041-1.592c-.501-.5-1.004-.806-1.596-1.035-.573-.221-1.227-.372-2.185-.414-.958-.041-1.267-.052-3.71-.047-2.445.005-2.751.015-3.711.062m.105 16.27c-.877-.038-1.354-.184-1.671-.306a2.803 2.803 0 0 1-1.037-.671 2.772 2.772 0 0 1-.675-1.034c-.123-.317-.272-.793-.313-1.67-.044-.95-.054-1.234-.059-3.637-.005-2.403.004-2.687.046-3.636.037-.877.184-1.354.306-1.671.162-.421.357-.72.67-1.036a2.778 2.778 0 0 1 1.035-.676c.317-.123.793-.27 1.67-.312.949-.045 1.233-.054 3.636-.06 2.402-.005 2.688.004 3.637.046.877.038 1.354.183 1.67.306.422.162.72.357 1.037.671.316.315.511.613.676 1.034.123.317.27.792.312 1.67.045.95.056 1.234.06 3.636.004 2.402-.004 2.688-.046 3.636-.038.878-.184 1.354-.306 1.672a2.79 2.79 0 0 1-.671 1.036 2.78 2.78 0 0 1-1.034.675c-.317.124-.793.271-1.67.313-.949.045-1.233.054-3.637.06-2.403.005-2.687-.005-3.636-.046M12.738 4.19a1.08 1.08 0 1 0 2.16-.004 1.08 1.08 0 0 0-2.16.004M4.402 9.009a4.62 4.62 0 1 0 9.242-.018 4.62 4.62 0 0 0-9.242.018m1.621-.003a3 3 0 1 1 6-.012 3 3 0 0 1-6 .012"></path></g></g><defs><clipPath id="clip0_5204_2390"><path fill="#fff" d="M.023 0h18v18h-18z"></path></clipPath><clipPath id="clip1_5204_2390"><path fill="#fff" d="M.023 0h18v18h-18z"></path></clipPath></defs></svg>