<svg class="styles_socialIcon__QGAbm" xmlns="http://www.w3.org/2000/svg" width="18" height="18" viewBox="0 0 18 18"><g clip-path="url(#clip0_10220_5559)"><path d="M16.65 0H1.35A1.35 1.35 0 0 0 0 1.35v15.3A1.35 1.35 0 0 0 1.35 18h15.3A1.35 1.35 0 0 0 18 16.65V1.35A1.35 1.35 0 0 0 16.65 0M5.4 15.3H2.7V7.2h2.7zM4.05 5.625A1.575 1.575 0 1 1 5.67 4.05a1.6 1.6 0 0 1-1.62 1.575M15.3 15.3h-2.7v-4.266c0-1.278-.54-1.737-1.242-1.737A1.566 1.566 0 0 0 9.9 10.971a.6.6 0 0 0 0 .126V15.3H7.2V7.2h2.61v1.17a2.8 2.8 0 0 1 2.43-1.26c1.395 0 3.024.774 3.024 3.294z"></path></g><defs><clipPath id="clip0_10220_5559"><path fill="#fff" d="M0 0h18v18H0z"></path></clipPath></defs></svg>