<svg class="styles_menuLinkIcon__5I41X" xmlns="http://www.w3.org/2000/svg" width="48" height="48" fill="none" viewBox="0 0 48 48"><rect width="47" height="47" x="0.5" y="0.5" fill="var(--menu-icon-surface)" rx="3.5"></rect><rect width="47" height="47" x=".5" y=".5" fill="none" stroke="var(--border-1)" rx="3.5"></rect><g clip-path="url(#clip0_411_3661)"><rect width="25.6" height="6.4" x="11.199" y="30.201" fill="var(--color-2)" rx="3.2"></rect><path fill="var(--color-1)" stroke="var(--menu-icon-surface)" stroke-width="3.2" d="M34.24 11c2.66 0 4.16 2.381 4.16 4.51v9.225c0 2.437-2.23 3.865-4.16 3.865-2.2 0-5.281.801-7.077 2.028-.801.547-1.89 1.094-3.164 1.094s-2.362-.547-3.163-1.094C19.04 29.4 15.959 28.6 13.759 28.6c-1.93 0-4.16-1.429-4.16-3.865V15.51c0-2.128 1.5-4.51 4.16-4.51 4.373 0 8.19 2.372 10.24 5.898A11.83 11.83 0 0 1 34.239 11Z"></path></g><defs><clipPath id="clip0_411_3661"><path fill="var(--menu-icon-surface)" d="M8 10h32v32H8z"></path></clipPath></defs></svg>