<svg class="styles_socialIcon__QGAbm" viewBox="0 0 18 20" xmlns="http://www.w3.org/2000/svg"><path d="M16.793 5.59065C16.0082 4.19852 14.8801 3.04194 13.5216 2.23668C12.1522 1.41504 10.5914 0.987837 9.00431 1.0003C7.41576 0.987069 5.85332 1.41429 4.48261 2.23668C3.12269 3.04124 1.99328 4.19791 1.20768 5.59065C0.405432 6.99312 -0.0116979 8.59161 0.000426427 10.217C-0.0183637 12.1663 0.584285 14.0687 1.71692 15.6355C2.81128 17.2005 4.36547 18.3662 6.15257 18.9625C6.23164 18.9872 6.31529 18.9925 6.39674 18.978C6.47819 18.9634 6.55516 18.9295 6.62142 18.8788C6.67055 18.8336 6.70955 18.7781 6.73577 18.716C6.76199 18.6539 6.7748 18.5868 6.77331 18.5192L6.76717 17.8709C6.76307 17.4626 6.76102 17.1077 6.76102 16.8062L6.49235 16.8575C6.27729 16.8926 6.05944 16.9068 5.84176 16.8997C5.56837 16.8949 5.29585 16.867 5.02697 16.8161C4.74103 16.7621 4.47188 16.6388 4.24204 16.4564C4.00096 16.2697 3.82117 16.0122 3.72666 15.7182L3.60988 15.4422C3.5114 15.2236 3.38759 15.018 3.24112 14.8298C3.10963 14.6378 2.93457 14.4813 2.731 14.3739L2.64935 14.3137C2.59325 14.2721 2.54225 14.2238 2.49746 14.1698C2.45419 14.1196 2.41866 14.0629 2.3921 14.0017C2.36868 13.9453 2.38829 13.8991 2.45092 13.8632C2.55868 13.8189 2.67491 13.8004 2.79071 13.8092L3.02513 13.8452C3.23465 13.9026 3.4316 14.0002 3.60549 14.1329C3.83778 14.2951 4.03185 14.5083 4.17356 14.757C4.32859 15.0567 4.55172 15.3139 4.82416 15.5069C5.04907 15.6694 5.31632 15.7593 5.59153 15.765C5.81566 15.7679 6.03951 15.7477 6.25968 15.7047C6.44165 15.6665 6.61851 15.6061 6.78648 15.5249C6.82524 15.0551 7.0293 14.6157 7.3607 14.2885C6.95556 14.2479 6.55404 14.1757 6.15959 14.0727C5.77464 13.9642 5.40447 13.8069 5.0577 13.6042C4.69472 13.4021 4.37404 13.129 4.11385 12.8003C3.83551 12.4228 3.62719 11.9961 3.49925 11.5415C3.33036 10.958 3.24924 10.3516 3.25868 9.7431C3.23931 8.82641 3.57191 7.93854 4.18497 7.27033C3.89678 6.47492 3.92612 5.59527 4.26663 4.82185C4.61086 4.76481 4.9639 4.82149 5.27457 4.9837C5.61164 5.11197 5.93862 5.26649 6.25266 5.44588C6.45987 5.57357 6.62581 5.68147 6.75049 5.76959C8.2232 5.35357 9.7784 5.35357 11.2511 5.76959L11.6963 5.48185C12.0385 5.27135 12.3995 5.09462 12.7744 4.95403C13.069 4.80746 13.4015 4.76114 13.7236 4.82185C13.8958 5.20356 13.9927 5.61633 14.0089 6.0365C14.025 6.45667 13.9599 6.87596 13.8175 7.27033C14.4305 7.93859 14.7631 8.82643 14.7438 9.7431C14.753 10.3542 14.6719 10.9633 14.5032 11.5496C14.3767 12.0059 14.166 12.4333 13.8825 12.8084C13.6181 13.1335 13.2961 13.4044 12.9334 13.6069C12.5865 13.8095 12.2164 13.9668 11.8315 14.0754C11.4371 14.1788 11.0355 14.2512 10.6304 14.2921C10.8484 14.5134 11.016 14.7813 11.1213 15.0766C11.2267 15.3719 11.2671 15.6874 11.2397 16.0005V18.5327C11.2381 18.5998 11.2504 18.6665 11.2756 18.7285C11.3009 18.7905 11.3386 18.8463 11.3863 18.8923C11.4512 18.9433 11.5272 18.9775 11.6077 18.9921C11.6882 19.0066 11.771 19.0011 11.849 18.976C13.6362 18.3797 15.1904 17.214 16.2847 15.649C17.4193 14.0782 18.0215 12.1707 17.9994 10.217C18.0115 8.59174 17.5947 6.99335 16.793 5.59065V5.59065Z"></path></svg>