<svg width="48" height="48" viewBox="0 0 48 48" fill="none" xmlns="http://www.w3.org/2000/svg">
<rect width="48" height="48" fill="#252228" style="fill:#252228;fill:color(display-p3 0.1451 0.1333 0.1569);fill-opacity:1;"/>
<g clip-path="url(#clip0_1289_16219)">
<path d="M32.7715 30.0777H31.8295L31.657 30.0162C31.1837 29.8452 26.9927 28.3017 25.4987 26.7859C23.884 25.1479 23.884 22.8604 25.4987 21.2239C26.9927 19.7082 31.1845 18.1647 31.657 17.9937L31.8295 17.9322H32.7715C32.2735 17.2099 31.6892 16.5514 31.0315 15.9717L30.9482 16.0017C29.7587 16.4314 25.7447 17.9712 24.0092 19.7322C21.5672 22.2079 21.5672 25.8019 24.0092 28.2784C25.7447 30.0394 29.7587 31.5784 30.9482 32.0082L31.0315 32.0382C31.6892 31.4592 32.2735 30.8007 32.7715 30.0777Z" fill="white" style="fill:white;fill-opacity:1;"/>
<path d="M22.5145 29.7647C19.2205 26.4242 19.2205 21.5755 22.5145 18.235C24.0685 16.6585 26.8195 15.349 28.9038 14.512C27.973 14.0275 26.974 13.687 25.942 13.501C24.1 14.3822 22.2798 15.4705 21.0243 16.7432C16.945 20.881 16.945 27.1195 21.0243 31.2572C22.279 32.5292 24.1 33.6182 25.942 34.4987C26.974 34.3127 27.9723 33.9722 28.9038 33.4885C26.8203 32.6515 24.0693 31.3412 22.5145 29.7647Z" fill="white" style="fill:white;fill-opacity:1;"/>
<path d="M19.5517 32.7206C14.6339 27.7339 14.6339 20.2114 19.5517 15.2239C20.1104 14.6561 20.7614 14.1266 21.4634 13.6309C16.8824 14.8054 13.4932 18.9896 13.4932 23.9734C13.4932 28.9556 16.8824 33.1406 21.4634 34.3144C20.7614 33.8186 20.1104 33.2884 19.5517 32.7206ZM26.9984 22.6841C26.1907 23.5031 26.1907 24.4429 26.9984 25.2626C27.8429 26.1199 30.5669 27.3229 32.2072 27.9296H33.9112C34.1819 27.2471 34.3814 26.5376 34.5059 25.8139H32.5859L32.4022 25.7419C31.7677 25.4914 31.1414 25.2221 30.5242 24.9326L28.7279 24.0881C28.6837 24.0671 28.6552 24.0229 28.6552 23.9741C28.6552 23.9246 28.6837 23.8804 28.7279 23.8594L30.5234 23.0141C31.1429 22.7224 31.7714 22.4516 32.4089 22.2011L32.5837 22.1321H34.5037C34.3792 21.4076 34.1797 20.6989 33.9097 20.0164H32.2057C30.5669 20.6239 27.8429 21.8269 26.9984 22.6841Z" fill="white" style="fill:white;fill-opacity:1;"/>
</g>
<defs>
<clipPath id="clip0_1289_16219">
<rect width="21.0128" height="20.9977" fill="white" style="fill:white;fill-opacity:1;" transform="translate(13.4932 13.501)"/>
</clipPath>
</defs>
</svg>
