<svg width="48" height="48" viewBox="0 0 48 48" fill="none" xmlns="http://www.w3.org/2000/svg">
<rect width="48" height="48" fill="#7133F5" style="fill:#7133F5;fill:color(display-p3 0.4431 0.2000 0.9608);fill-opacity:1;"/>
<path d="M23.9978 15C17.7522 15 12.6895 20.1291 12.6895 26.4561V31.3654C12.6895 32.2685 13.4119 33 14.3038 33C15.1957 33 15.9234 32.2685 15.9234 31.3654V26.4561C15.9234 25.5503 16.6433 24.8187 17.5378 24.8187C18.4297 24.8187 19.1521 25.5503 19.1521 26.4561V31.3654C19.1521 32.2685 19.8746 33 20.7665 33C21.661 33 22.3835 32.2685 22.3835 31.3654V26.4561C22.3835 25.5503 23.106 24.8187 23.9978 24.8187C24.8923 24.8187 25.6175 25.5503 25.6175 26.4561V31.3654C25.6175 32.2685 26.3399 33 27.2319 33C28.1237 33 28.8462 32.2685 28.8462 31.3654V26.4561C28.8462 25.5503 29.5687 24.8187 30.4658 24.8187C31.3577 24.8187 32.0801 25.5503 32.0801 26.4561V31.3654C32.0801 32.2685 32.8026 33 33.6972 33C34.589 33 35.3115 32.2685 35.3115 31.3654V26.4561C35.3115 20.1291 30.2462 15 23.9978 15Z" fill="white" style="fill:white;fill-opacity:1;"/>
</svg>
