<svg xmlns="http://www.w3.org/2000/svg" width="16" height="16" viewBox="0 0 16 16" fill="none" style="overflow:visible"><g class="supply" style="transform-origin:50% 0% 0"><path class="supply-top" d="M6.65836 4.68328C7.21115 3.57771 8.78885 3.57771 9.34164 4.68328L12.4051 10.8102C12.9005 11.801 11.8307 12.843 10.8533 12.3218C9.06998 11.3707 6.93002 11.3707 5.14671 12.3218C4.16928 12.843 3.09948 11.801 3.59489 10.8102L6.65836 4.68328Z" fill="var(--fg-3)"></path><path class="supply-bottom" d="M6 14.5359C6.60808 14.1848 7.29785 14 8 14C8.70215 14 9.39192 14.1848 10 14.5359" stroke="var(--fg-4)" stroke-width="2" stroke-linecap="round"></path></g><g class="supply-new" style="transform-origin:50% 100% 0"><path class="supply-top" d="M6.65836 4.68328C7.21115 3.57771 8.78885 3.57771 9.34164 4.68328L12.4051 10.8102C12.9005 11.801 11.8307 12.843 10.8533 12.3218C9.06998 11.3707 6.93002 11.3707 5.14671 12.3218C4.16928 12.843 3.09948 11.801 3.59489 10.8102L6.65836 4.68328Z" fill="var(--fg-3)"></path><path class="supply-bottom" d="M6 14.5359C6.60808 14.1848 7.29785 14 8 14C8.70215 14 9.39192 14.1848 10 14.5359" stroke="var(--fg-4)" stroke-width="2" stroke-linecap="round"></path></g></svg>