<svg class="styles_socialIcon__QGAbm" width="18" height="18" viewBox="0 0.5 16 16" xmlns="http://www.w3.org/2000/svg"><path d="M8.99998 18.0012C13.9705 18.0012 18 13.9718 18 9.00122C18 8.91852 17.9989 8.83607 17.9966 8.75391L1.57538 14.0895C3.19748 16.4519 5.91779 18.0012 8.99998 18.0012Z" fill-opacity="0.5"></path><path d="M17.9998 9.06516C17.9999 9.04346 18 9.02174 18 9C18 4.02944 13.9706 0 9 0C4.02944 0 0 4.02944 0 9C0 10.8888 0.581847 12.6417 1.57608 14.0893L17.9966 8.75391C17.9989 8.83607 18 8.91852 18 9.00122C18 9.02255 17.9999 9.04387 17.9998 9.06516Z"></path></svg>