<svg class="styles_menuLinkIcon__5I41X" xmlns="http://www.w3.org/2000/svg" width="48" height="48" fill="none" viewBox="0 0 48 48"><rect width="47" height="47" x="0.5" y="0.5" fill="var(--menu-icon-surface)" rx="3.5"></rect><rect width="47" height="47" x="0.5" y="0.5" fill="none" stroke="var(--border-1)" rx="3.5"></rect><path stroke="var(--color-2)" stroke-width="3" d="M18 17v-1.934a3.62 3.62 0 0 1 3.025-3.57 18.1 18.1 0 0 1 5.95 0A3.62 3.62 0 0 1 30 15.066V17"></path><path fill="var(--color-1)" d="M10 30.652a2 2 0 0 1 2.55-1.924l7.604 2.173a14 14 0 0 0 7.692 0l7.605-2.173A2 2 0 0 1 38 30.651V34a4 4 0 0 1-4 4H14a4 4 0 0 1-4-4z"></path><path fill="var(--color-2)" d="M10 18.998a3 3 0 0 1 3-3h22a3 3 0 0 1 3 3v2.983a4 4 0 0 1-2.901 3.846l-7.802 2.23a12 12 0 0 1-6.594 0l-7.802-2.23A4 4 0 0 1 10 21.98z"></path></svg>