<svg class="styles_socialIcon__QGAbm" viewBox="0 0 19 20" xmlns="http://www.w3.org/2000/svg"><path d="M16.1088 3.98442C18.2546 7.13936 19.3143 10.6981 18.9182 14.7949C18.9165 14.8123 18.9075 14.8282 18.8933 14.8386C17.2683 16.0318 15.6939 16.756 14.1416 17.2362C14.1295 17.2399 14.1166 17.2397 14.1046 17.2356C14.0927 17.2316 14.0822 17.2239 14.0749 17.2136C13.7162 16.7146 13.3904 16.1886 13.1049 15.6361C13.0885 15.6036 13.1035 15.5644 13.1372 15.5516C13.6547 15.3566 14.1468 15.1229 14.6202 14.8462C14.6575 14.8244 14.6598 14.7709 14.6254 14.7453C14.5249 14.6707 14.4254 14.5923 14.3302 14.514C14.3124 14.4995 14.2884 14.4966 14.2682 14.5064C11.1952 15.9254 7.82887 15.9254 4.71952 14.5064C4.69933 14.4973 4.67535 14.5004 4.65801 14.5147C4.56301 14.5931 4.46326 14.6707 4.36375 14.7453C4.32931 14.7709 4.33216 14.8244 4.36968 14.8462C4.84302 15.1177 5.33512 15.3566 5.85192 15.5526C5.88541 15.5654 5.90132 15.6036 5.88469 15.6361C5.60539 16.1893 5.27955 16.7153 4.91427 17.2143C4.89836 17.2345 4.87223 17.2438 4.84753 17.2362C3.3026 16.756 1.72821 16.0318 0.103242 14.8386C0.0897043 14.8282 0.0799668 14.8116 0.0785418 14.7942C-0.252533 11.2505 0.422204 7.66234 2.88531 3.98371C2.89125 3.97397 2.90027 3.96637 2.91072 3.96186C4.12268 3.40563 5.4211 2.99642 6.77817 2.76272C6.80287 2.75892 6.82757 2.77032 6.84039 2.79217C7.00807 3.08904 7.19973 3.46976 7.3294 3.78088C8.75986 3.56238 10.2127 3.56238 11.673 3.78088C11.8027 3.47641 11.9877 3.08904 12.1547 2.79217C12.1606 2.78133 12.1698 2.77265 12.181 2.76736C12.1922 2.76207 12.2048 2.76045 12.2169 2.76272C13.5747 2.99713 14.8731 3.40634 16.0841 3.96186C16.0948 3.96637 16.1036 3.97397 16.1088 3.98442V3.98442ZM8.05663 10.7223C8.07159 9.67467 7.30779 8.8078 6.34901 8.8078C5.39806 8.8078 4.64162 9.66707 4.64162 10.7223C4.64162 11.7773 5.41302 12.6365 6.34901 12.6365C7.30019 12.6365 8.05663 11.7773 8.05663 10.7223V10.7223ZM14.3698 10.7223C14.3848 9.67467 13.621 8.8078 12.6625 8.8078C11.7113 8.8078 10.9548 9.66707 10.9548 10.7223C10.9548 11.7773 11.7262 12.6365 12.6625 12.6365C13.621 12.6365 14.3698 11.7773 14.3698 10.7223V10.7223Z"></path></svg>