<svg xmlns="http://www.w3.org/2000/svg" width="570" height="329" fill="none" viewBox="0 0 570 329"><rect width="96" height="96" fill="rgba(0, 0, 0, 0.05)" rx="20.48" transform="matrix(.86603 -.5 .86603 .5 100.875 222.672)"></rect><rect width="96" height="96" fill="rgba(0, 0, 0, 0.05)" rx="20.48" transform="matrix(.86603 -.5 .86603 .5 201.666 164.48)"></rect><rect width="96" height="96" fill="rgba(0, 0, 0, 0.05)" rx="20.48" transform="matrix(.86603 -.5 .86603 .5 302.54 106.24)"></rect><rect width="96" height="96" fill="rgba(0, 0, 0, 0.05)" rx="20.48" transform="matrix(.86603 -.5 .86603 .5 100.791 106.24)"></rect><rect width="96" height="96" fill="rgba(0, 0, 0, 0.05)" rx="20.48" transform="matrix(.86603 -.5 .86603 .5 302.541 222.721)"></rect><g opacity="1" style="transform: translateX(101px) translateY(-58px); transform-origin: 50% 50%; transform-box: fill-box;"><path d="M276.879 97.35a42.8 42.8 0 0 1 15.531 0c5.737 1.077 10.713 3.95 20.665 9.696l26.431 15.26c9.951 5.746 14.928 8.619 16.792 11.931.849 1.509 1.257 3.077 1.227 4.644l.002.639v23.041l-.017 1.28c.107 1.688-.297 3.385-1.212 5.012-1.864 3.313-6.841 6.186-16.792 11.931l-26.431 15.261-3.51 2.022c-7.698 4.414-12.135 6.731-17.155 7.673a42.8 42.8 0 0 1-15.531 0c-5.738-1.076-10.713-3.949-20.665-9.695l-26.431-15.261c-9.952-5.745-14.928-8.618-16.792-11.931-.916-1.627-1.319-3.324-1.213-5.012l-.015-24.96c-.029-1.567.379-3.135 1.228-4.644 1.864-3.312 6.84-6.185 16.792-11.931l26.431-15.26c9.952-5.746 14.927-8.619 20.665-9.695" fill="#E2E0FF" style="fill:color(display-p3 0.8862745098039215 0.8784313725490196 1)"></path><path d="M229.745 103.424c-9.933-5.735-14.9-8.602-16.761-11.909-1.636-2.908-1.636-6.041 0-8.95 1.861-3.306 6.828-6.174 16.761-11.909l26.383-15.232c9.933-5.734 14.9-8.602 20.627-9.676a42.7 42.7 0 0 1 15.502 0c5.727 1.074 10.693 3.942 20.627 9.677l26.382 15.231c9.933 5.735 14.9 8.603 16.761 11.91 1.637 2.908 1.637 6.041 0 8.95-1.861 3.306-6.828 6.173-16.761 11.908l-26.382 15.232c-9.934 5.735-14.9 8.603-20.627 9.677a42.7 42.7 0 0 1-15.502 0c-5.727-1.074-10.694-3.942-20.627-9.677z" transform="translate(0 51)" fill="#BDBBFF" style="fill:color(display-p3 0.7411764705882353 0.7333333333333333 1)"></path><path fill="#fff" d="M303.91 86.386c-3.291 1.9-8.628 1.9-11.92 0s-3.291-4.982 0-6.882 8.628-1.9 11.92 0 3.292 4.981 0 6.882M288.337 95.377c-3.292 1.9-8.628 1.9-11.92 0s-3.291-4.981 0-6.881 8.628-1.9 11.92 0 3.291 4.98 0 6.881" transform="translate(0 51)"></path><path fill="#fff" d="M265.565 73.235c16.183-9.343 42.672-9.198 59.155.323l-7.484 4.321c-12.356-7.133-32.063-7.323-44.187-.323-12.125 7-11.796 18.377.56 25.511l-7.484 4.321c-16.49-9.517-16.74-24.81-.56-34.153" transform="translate(0 51)"></path></g><g opacity="1" style="transform: translateX(-101px) translateY(58px); transform-origin: 50% 50%; transform-box: fill-box;"><path d="M276.879 97.35a42.8 42.8 0 0 1 15.531 0c5.737 1.077 10.713 3.95 20.665 9.696l26.431 15.26c9.951 5.746 14.928 8.619 16.792 11.931.849 1.509 1.257 3.077 1.227 4.644l.002.639v23.041l-.017 1.28c.107 1.688-.297 3.385-1.212 5.012-1.864 3.313-6.841 6.186-16.792 11.931l-26.431 15.261-3.51 2.022c-7.698 4.414-12.135 6.731-17.155 7.673a42.8 42.8 0 0 1-15.531 0c-5.738-1.076-10.713-3.949-20.665-9.695l-26.431-15.261c-9.952-5.745-14.928-8.618-16.792-11.931-.916-1.627-1.319-3.324-1.213-5.012l-.015-24.96c-.029-1.567.379-3.135 1.228-4.644 1.864-3.312 6.84-6.185 16.792-11.931l26.431-15.26c9.952-5.746 14.927-8.619 20.665-9.695" fill="#FFD1B6" style="fill:color(display-p3 1 0.8196078431372549 0.7137254901960784)"></path><path d="M229.745 103.424c-9.933-5.735-14.9-8.602-16.761-11.909-1.636-2.908-1.636-6.041 0-8.95 1.861-3.306 6.828-6.174 16.761-11.909l26.383-15.232c9.933-5.734 14.9-8.602 20.627-9.676a42.7 42.7 0 0 1 15.502 0c5.727 1.074 10.693 3.942 20.627 9.677l26.382 15.231c9.933 5.735 14.9 8.603 16.761 11.91 1.637 2.908 1.637 6.041 0 8.95-1.861 3.306-6.828 6.173-16.761 11.908l-26.382 15.232c-9.934 5.735-14.9 8.603-20.627 9.677a42.7 42.7 0 0 1-15.502 0c-5.727-1.074-10.694-3.942-20.627-9.677z" transform="translate(0 51)" fill="#FB854E" style="fill:color(display-p3 0.984313725490196 0.5215686274509804 0.3058823529411765)"></path><path fill="#fff" d="M303.91 86.386c-3.291 1.9-8.628 1.9-11.92 0s-3.291-4.982 0-6.882 8.628-1.9 11.92 0 3.292 4.981 0 6.882M288.337 95.377c-3.292 1.9-8.628 1.9-11.92 0s-3.291-4.981 0-6.881 8.628-1.9 11.92 0 3.291 4.98 0 6.881" transform="translate(0 51)"></path><path fill="#fff" d="M265.565 73.235c16.183-9.343 42.672-9.198 59.155.323l-7.484 4.321c-12.356-7.133-32.063-7.323-44.187-.323-12.125 7-11.796 18.377.56 25.511l-7.484 4.321c-16.49-9.517-16.74-24.81-.56-34.153" transform="translate(0 51)"></path></g><g opacity="0" style="transform: translateX(-197px) translateY(117px); transform-origin: 50% 50%; transform-box: fill-box;"><path d="M276.879 97.35a42.8 42.8 0 0 1 15.531 0c5.737 1.077 10.713 3.95 20.665 9.696l26.431 15.26c9.951 5.746 14.928 8.619 16.792 11.931.849 1.509 1.257 3.077 1.227 4.644l.002.639v23.041l-.017 1.28c.107 1.688-.297 3.385-1.212 5.012-1.864 3.313-6.841 6.186-16.792 11.931l-26.431 15.261-3.51 2.022c-7.698 4.414-12.135 6.731-17.155 7.673a42.8 42.8 0 0 1-15.531 0c-5.738-1.076-10.713-3.949-20.665-9.695l-26.431-15.261c-9.952-5.745-14.928-8.618-16.792-11.931-.916-1.627-1.319-3.324-1.213-5.012l-.015-24.96c-.029-1.567.379-3.135 1.228-4.644 1.864-3.312 6.84-6.185 16.792-11.931l26.431-15.26c9.952-5.746 14.927-8.619 20.665-9.695" fill="#CDE5FF" style="fill:color(display-p3 0.803921568627451 0.8980392156862745 1)"></path><path d="M229.745 103.424c-9.933-5.735-14.9-8.602-16.761-11.909-1.636-2.908-1.636-6.041 0-8.95 1.861-3.306 6.828-6.174 16.761-11.909l26.383-15.232c9.933-5.734 14.9-8.602 20.627-9.676a42.7 42.7 0 0 1 15.502 0c5.727 1.074 10.693 3.942 20.627 9.677l26.382 15.231c9.933 5.735 14.9 8.603 16.761 11.91 1.637 2.908 1.637 6.041 0 8.95-1.861 3.306-6.828 6.173-16.761 11.908l-26.382 15.232c-9.934 5.735-14.9 8.603-20.627 9.677a42.7 42.7 0 0 1-15.502 0c-5.727-1.074-10.694-3.942-20.627-9.677z" transform="translate(0 51)" fill="#71B4FA" style="fill:color(display-p3 0.44313725490196076 0.7058823529411765 0.9803921568627451)"></path><path fill="#fff" d="M303.91 86.386c-3.291 1.9-8.628 1.9-11.92 0s-3.291-4.982 0-6.882 8.628-1.9 11.92 0 3.292 4.981 0 6.882M288.337 95.377c-3.292 1.9-8.628 1.9-11.92 0s-3.291-4.981 0-6.881 8.628-1.9 11.92 0 3.291 4.98 0 6.881" transform="translate(0 51)"></path><path fill="#fff" d="M265.565 73.235c16.183-9.343 42.672-9.198 59.155.323l-7.484 4.321c-12.356-7.133-32.063-7.323-44.187-.323-12.125 7-11.796 18.377.56 25.511l-7.484 4.321c-16.49-9.517-16.74-24.81-.56-34.153" transform="translate(0 51)"></path></g><g opacity="0" style="transform: translateX(-197px) translateY(117px); transform-origin: 50% 50%; transform-box: fill-box;"><path d="M276.879 97.35a42.8 42.8 0 0 1 15.531 0c5.737 1.077 10.713 3.95 20.665 9.696l26.431 15.26c9.951 5.746 14.928 8.619 16.792 11.931.849 1.509 1.257 3.077 1.227 4.644l.002.639v23.041l-.017 1.28c.107 1.688-.297 3.385-1.212 5.012-1.864 3.313-6.841 6.186-16.792 11.931l-26.431 15.261-3.51 2.022c-7.698 4.414-12.135 6.731-17.155 7.673a42.8 42.8 0 0 1-15.531 0c-5.738-1.076-10.713-3.949-20.665-9.695l-26.431-15.261c-9.952-5.745-14.928-8.618-16.792-11.931-.916-1.627-1.319-3.324-1.213-5.012l-.015-24.96c-.029-1.567.379-3.135 1.228-4.644 1.864-3.312 6.84-6.185 16.792-11.931l26.431-15.26c9.952-5.746 14.927-8.619 20.665-9.695" fill="#FFF3CC" style="fill:color(display-p3 1 0.9529411764705882 0.8)"></path><path d="M229.745 103.424c-9.933-5.735-14.9-8.602-16.761-11.909-1.636-2.908-1.636-6.041 0-8.95 1.861-3.306 6.828-6.174 16.761-11.909l26.383-15.232c9.933-5.734 14.9-8.602 20.627-9.676a42.7 42.7 0 0 1 15.502 0c5.727 1.074 10.693 3.942 20.627 9.677l26.382 15.231c9.933 5.735 14.9 8.603 16.761 11.91 1.637 2.908 1.637 6.041 0 8.95-1.861 3.306-6.828 6.173-16.761 11.908l-26.382 15.232c-9.934 5.735-14.9 8.603-20.627 9.677a42.7 42.7 0 0 1-15.502 0c-5.727-1.074-10.694-3.942-20.627-9.677z" transform="translate(0 51)" fill="#FFD46B" style="fill:color(display-p3 1 0.8313725490196079 0.4196078431372549)"></path><path fill="#fff" d="M303.91 86.386c-3.291 1.9-8.628 1.9-11.92 0s-3.291-4.982 0-6.882 8.628-1.9 11.92 0 3.292 4.981 0 6.882M288.337 95.377c-3.292 1.9-8.628 1.9-11.92 0s-3.291-4.981 0-6.881 8.628-1.9 11.92 0 3.291 4.98 0 6.881" transform="translate(0 51)"></path><path fill="#fff" d="M265.565 73.235c16.183-9.343 42.672-9.198 59.155.323l-7.484 4.321c-12.356-7.133-32.063-7.323-44.187-.323-12.125 7-11.796 18.377.56 25.511l-7.484 4.321c-16.49-9.517-16.74-24.81-.56-34.153" transform="translate(0 51)"></path></g><g opacity="0" style="transform: translateX(-197px) translateY(117px); transform-origin: 50% 50%; transform-box: fill-box;"><path d="M276.879 97.35a42.8 42.8 0 0 1 15.531 0c5.737 1.077 10.713 3.95 20.665 9.696l26.431 15.26c9.951 5.746 14.928 8.619 16.792 11.931.849 1.509 1.257 3.077 1.227 4.644l.002.639v23.041l-.017 1.28c.107 1.688-.297 3.385-1.212 5.012-1.864 3.313-6.841 6.186-16.792 11.931l-26.431 15.261-3.51 2.022c-7.698 4.414-12.135 6.731-17.155 7.673a42.8 42.8 0 0 1-15.531 0c-5.738-1.076-10.713-3.949-20.665-9.695l-26.431-15.261c-9.952-5.745-14.928-8.618-16.792-11.931-.916-1.627-1.319-3.324-1.213-5.012l-.015-24.96c-.029-1.567.379-3.135 1.228-4.644 1.864-3.312 6.84-6.185 16.792-11.931l26.431-15.26c9.952-5.746 14.927-8.619 20.665-9.695" fill="#E2E0FF" style="fill:color(display-p3 0.8862745098039215 0.8784313725490196 1)"></path><path d="M229.745 103.424c-9.933-5.735-14.9-8.602-16.761-11.909-1.636-2.908-1.636-6.041 0-8.95 1.861-3.306 6.828-6.174 16.761-11.909l26.383-15.232c9.933-5.734 14.9-8.602 20.627-9.676a42.7 42.7 0 0 1 15.502 0c5.727 1.074 10.693 3.942 20.627 9.677l26.382 15.231c9.933 5.735 14.9 8.603 16.761 11.91 1.637 2.908 1.637 6.041 0 8.95-1.861 3.306-6.828 6.173-16.761 11.908l-26.382 15.232c-9.934 5.735-14.9 8.603-20.627 9.677a42.7 42.7 0 0 1-15.502 0c-5.727-1.074-10.694-3.942-20.627-9.677z" transform="translate(0 51)" fill="#BDBBFF" style="fill:color(display-p3 0.7411764705882353 0.7333333333333333 1)"></path><path fill="#fff" d="M303.91 86.386c-3.291 1.9-8.628 1.9-11.92 0s-3.291-4.982 0-6.882 8.628-1.9 11.92 0 3.292 4.981 0 6.882M288.337 95.377c-3.292 1.9-8.628 1.9-11.92 0s-3.291-4.981 0-6.881 8.628-1.9 11.92 0 3.291 4.98 0 6.881" transform="translate(0 51)"></path><path fill="#fff" d="M265.565 73.235c16.183-9.343 42.672-9.198 59.155.323l-7.484 4.321c-12.356-7.133-32.063-7.323-44.187-.323-12.125 7-11.796 18.377.56 25.511l-7.484 4.321c-16.49-9.517-16.74-24.81-.56-34.153" transform="translate(0 51)"></path></g><path d="M276.879 71.75a42.8 42.8 0 0 1 15.531 0c5.737 1.077 10.713 3.95 20.665 9.695l26.431 15.261c9.951 5.746 14.928 8.619 16.792 11.931.849 1.509 1.257 3.077 1.227 4.644l.002.639v23.041l-.017 1.28c.107 1.688-.297 3.385-1.212 5.012-1.864 3.313-6.841 6.186-16.792 11.931l-26.431 15.261-3.51 2.022c-7.698 4.414-12.135 6.731-17.155 7.673a42.8 42.8 0 0 1-15.531 0c-5.738-1.077-10.713-3.949-20.665-9.695l-26.431-15.261c-9.952-5.745-14.928-8.618-16.792-11.931-.916-1.627-1.319-3.324-1.213-5.012l-.015-24.96c-.029-1.567.379-3.135 1.228-4.644 1.864-3.312 6.84-6.185 16.792-11.93l26.431-15.261c9.952-5.746 14.927-8.62 20.665-9.695" fill="color(display-p3 0.7843137254901961 0.7803921568627451 1)"></path><path d="M276.879 46.15a42.8 42.8 0 0 1 15.531 0c5.737 1.077 10.713 3.95 20.665 9.695l26.431 15.261c9.951 5.746 14.928 8.619 16.792 11.931.849 1.508 1.257 3.077 1.227 4.643l.002.64v23.04l-.017 1.28c.107 1.689-.297 3.386-1.212 5.013-1.864 3.313-6.841 6.185-16.792 11.931l-26.431 15.261-3.51 2.022c-7.698 4.414-12.135 6.731-17.155 7.673a42.8 42.8 0 0 1-15.531 0c-5.738-1.077-10.713-3.949-20.665-9.695l-26.431-15.261c-9.952-5.746-14.928-8.618-16.792-11.931-.916-1.627-1.319-3.324-1.213-5.013l-.015-24.96c-.029-1.566.379-3.135 1.228-4.643 1.864-3.312 6.84-6.185 16.792-11.931l26.431-15.26c9.952-5.746 14.927-8.62 20.665-9.696" fill="color(display-p3 0.7058823529411765 0.6980392156862745 1)"></path><path d="M229.745 103.424c-9.933-5.735-14.9-8.602-16.761-11.909-1.636-2.908-1.636-6.041 0-8.95 1.861-3.306 6.828-6.174 16.761-11.909l26.383-15.232c9.933-5.734 14.9-8.602 20.627-9.676a42.7 42.7 0 0 1 15.502 0c5.727 1.074 10.693 3.942 20.627 9.677l26.382 15.231c9.933 5.735 14.9 8.603 16.761 11.91 1.637 2.908 1.637 6.041 0 8.95-1.861 3.306-6.828 6.173-16.761 11.908l-26.382 15.232c-9.934 5.735-14.9 8.603-20.627 9.677a42.7 42.7 0 0 1-15.502 0c-5.727-1.074-10.694-3.942-20.627-9.677z" fill="color(display-p3 0.596078431372549 0.5882352941176471 1)"></path><path fill="#fff" d="M303.91 86.386c-3.291 1.9-8.628 1.9-11.92 0s-3.291-4.982 0-6.882 8.628-1.9 11.92 0 3.292 4.981 0 6.882M288.337 95.377c-3.292 1.9-8.628 1.9-11.92 0s-3.291-4.981 0-6.881 8.628-1.9 11.92 0 3.291 4.98 0 6.881"></path><path fill="#fff" d="M265.565 73.235c16.183-9.343 42.672-9.198 59.155.323l-7.484 4.321c-12.356-7.133-32.063-7.323-44.187-.323-12.125 7-11.796 18.377.56 25.511l-7.484 4.321c-16.49-9.517-16.74-24.81-.56-34.153"></path></svg>