<svg width="48" height="48" viewBox="0 0 48 48" fill="none" xmlns="http://www.w3.org/2000/svg">
<rect width="48" height="48" fill="white" style="fill:white;fill-opacity:1;"/>
<path d="M23.9996 9H24.0001C32.2631 9 38.9615 15.7156 38.9615 23.9997V24.0003C38.9615 32.2844 32.2631 39 24.0001 39H23.9996C15.7365 39 9.03809 32.2844 9.03809 24.0003V23.9997C9.03809 15.7156 15.7365 9 23.9996 9Z" fill="white" style="fill:white;fill-opacity:1;"/>
<path fill-rule="evenodd" clip-rule="evenodd" d="M20.1157 14.9995H19.7044L19.4376 15.3135L12.553 23.4207L12.0615 23.9995L12.553 24.5782L19.4376 32.6855L19.7044 32.9995H20.1157H32.5105H33.401V32.1068V26.9528H31.62V31.214H22.063L27.783 24.5835L28.2868 23.9995L27.783 23.4155L22.063 16.785H31.62V21.0462H33.401V15.8923V14.9995H32.5105H20.1157ZM20.1209 17.2632L14.4005 23.9995L20.1209 30.7358L25.9322 23.9995L20.1209 17.2632Z" fill="#201D1D" style="fill:#201D1D;fill:color(display-p3 0.1255 0.1137 0.1137);fill-opacity:1;"/>
</svg>
